PathFileType	4	(X/Y/Z)	/Users/itak/Documents/Research/Walk-IL/dataset/trc/00114_00007.trc
DataRate	CameraRate	NumFrames	NumMarkers	Units	OrigDataRate	OrigDataStartFrame	OrigNumFrames
100.000000	100.000000	4	53	mm	100.000000	209	559
Frame#	Time	RPSI			LPSI			L3			STRN			T10			C7			CLAV			RBAK			LBAK			LSHO			LUPA			LAEL			LAOL			LWTS			LWPS			LFRA			LIFD			LHPS			LHTS			RSHO			RUPA			RAEL			RAOL			RWTS			RWPS			RFRA			RIFD			RHTS			RHPS			RBHD			LFHD			RFHD			LBHD			LHIP			RHIP			RASI			LASI			LKNE			LTHI			LANK			LTIP			LTOE			LMT1			LMT5			LHEE			RKNE			RTHI			RANK			RTIP			RTOE			RMT1			RMT5			RHEE			
		X1	Y1	Z1	X2	Y2	Z2	X3	Y3	Z3	X4	Y4	Z4	X5	Y5	Z5	X6	Y6	Z6	X7	Y7	Z7	X8	Y8	Z8	X9	Y9	Z9	X10	Y10	Z10	X11	Y11	Z11	X12	Y12	Z12	X13	Y13	Z13	X14	Y14	Z14	X15	Y15	Z15	X16	Y16	Z16	X17	Y17	Z17	X18	Y18	Z18	X19	Y19	Z19	X20	Y20	Z20	X21	Y21	Z21	X22	Y22	Z22	X23	Y23	Z23	X24	Y24	Z24	X25	Y25	Z25	X26	Y26	Z26	X27	Y27	Z27	X28	Y28	Z28	X29	Y29	Z29	X30	Y30	Z30	X31	Y31	Z31	X32	Y32	Z32	X33	Y33	Z33	X34	Y34	Z34	X35	Y35	Z35	X36	Y36	Z36	X37	Y37	Z37	X38	Y38	Z38	X39	Y39	Z39	X40	Y40	Z40	X41	Y41	Z41	X42	Y42	Z42	X43	Y43	Z43	X44	Y44	Z44	X45	Y45	Z45	X46	Y46	Z46	X47	Y47	Z47	X48	Y48	Z48	X49	Y49	Z49	X50	Y50	Z50	X51	Y51	Z51	X52	Y52	Z52	X53	Y53	Z53	

210	2.09	265.9852294921875	1121.404418945312	-241.8786315917969	272.7489624023438	1123.673095703125	-377.5057678222656	262.4338684082031	1161.778686523438	-312.5688781738281	487.3323059082031	1361.663330078125	-302.1154174804688	232.9850158691406	1315.874145507812	-316.5234069824219	277.2393493652344	1606.279174804688	-333.147705078125	456.9246215820312	1498.829345703125	-309.5876770019531	216.1188507080078	1424.535522460938	-246.5477447509766	276.5534057617188	1585.710693359375	-434.9507751464844	368.8269653320312	1569.658813476562	-495.0125427246094	356.8149108886719	1436.762084960938	-562.8926391601562	381.871337890625	1217.659057617188	-577.1423950195312	308.0137939453125	1203.698608398438	-531.1865844726562	494.3830261230469	973.4576416015625	-506.9314880371094	420.1615905761719	937.6310424804688	-544.175537109375	406.7430114746094	1102.916748046875	-573.3864135742188	519.4744873046875	781.7780151367188	-473.4233703613281	455.4476013183594	865.6978759765625	-536.6608276367188	518.976318359375	885.6705932617188	-511.2789306640625	319.4739990234375	1588.649047851562	-146.9734497070312	297.9256591796875	1516.482666015625	-83.2581787109375	284.8451232910156	1222.334350585938	-58.05155181884766	288.2666625976562	1219.25634765625	-154.6186981201172	434.6844787597656	984.913818359375	-49.36421585083008	358.3857116699219	965.2346801757812	-27.42556571960449	308.1478881835938	1149.94140625	-38.8890266418457	471.2272338867188	792.1132202148438	-55.94488525390625	468.345947265625	878.9824829101562	-35.78177642822266	399.3655700683594	868.0521240234375	-15.06234645843506	310.8673706054688	1770.513916015625	-246.4875793457031	465.852783203125	1850.654296875	-381.029296875	466.7364501953125	1854.627197265625	-251.47607421875	299.4579162597656	1770.01611328125	-381.5987243652344	376.05126953125	1038.837768554688	-483.8169250488281	391.7064208984375	1031.001953125	-117.5954132080078	472.733154296875	1105.573852539062	-168.1485595703125	476.2083740234375	1105.874633789062	-433.4786376953125	504.1809997558594	536.944580078125	-460.3311157226562	453.53466796875	685.4347534179688	-480.7796936035156	135.3665313720703	155.0637054443359	-484.5762939453125	288.9489135742188	363.21044921875	-496.302734375	335.9920043945312	48.08037948608398	-447.2200012207031	271.5912170410156	81.61756134033203	-406.760986328125	238.3998565673828	94.32406616210938	-517.1834106445312	79.97369384765625	186.5005950927734	-418.0765380859375	465.2116394042969	543.933349609375	-165.9223785400391	439.343505859375	821.1820678710938	-129.9980773925781	405.58740234375	30.74330902099609	-201.5851593017578	455.6282043457031	406.7293395996094	-160.3781433105469	640.64794921875	38.7714958190918	-249.1464538574219	578.030029296875	26.92840385437012	-293.2375183105469	539.3322143554688	39.30730056762695	-177.8610687255859	348.8618469238281	34.23298263549805	-251.8377838134766	
211	2.1	261.6686706542969	1121.057250976562	-242.4606018066406	268.2797546386719	1123.133911132812	-378.1036987304688	258.0739440917969	1161.246704101562	-313.2643737792969	482.4390258789062	1361.307250976562	-303.0960083007812	228.3229675292969	1315.328125	-317.551025390625	272.1061706542969	1605.690673828125	-334.5962829589844	451.9041442871094	1498.5087890625	-310.6744384765625	211.1267395019531	1423.858154296875	-248.0156707763672	271.6647033691406	1585.100952148438	-436.3951110839844	364.1454162597656	1569.217163085938	-496.2531127929688	352.5989685058594	1436.236694335938	-564.109375	378.4444885253906	1217.150024414062	-578.0684814453125	304.4376831054688	1203.051879882812	-532.4305419921875	490.7508850097656	972.8942260742188	-507.4450073242188	416.6485595703125	937.1116333007812	-545.0115966796875	403.4340209960938	1102.458862304688	-574.2262573242188	515.3912963867188	781.1823120117188	-473.6729431152344	451.8533325195312	865.142578125	-537.3195190429688	515.1764526367188	884.9659423828125	-511.5088195800781	313.9892272949219	1588.1611328125	-148.3346405029297	292.4001770019531	1515.96923828125	-84.64875793457031	279.5219421386719	1221.84375	-59.45289993286133	283.2947998046875	1218.750854492188	-156.0335083007812	429.0184020996094	984.2649536132812	-50.19835662841797	352.5952758789062	964.70166015625	-28.53131866455078	302.6711730957031	1149.473388671875	-40.20307540893555	465.2540283203125	791.3994750976562	-56.61931991577148	462.4505615234375	878.2745361328125	-36.47967910766602	393.3999633789062	867.4733276367188	-15.99509906768799	305.4673156738281	1769.95703125	-247.6476287841797	460.8633117675781	1850.417724609375	-381.5015563964844	461.339599609375	1854.073608398438	-251.9613189697266	294.460693359375	1769.78759765625	-382.7930908203125	371.3710632324219	1038.141967773438	-484.3653869628906	387.6820068359375	1030.9169921875	-118.2615280151367	468.5569458007812	1105.468627929688	-169.1100463867188	471.6669616699219	1105.328369140625	-434.4421081542969	497.1517333984375	535.7232055664062	-461.54345703125	447.3360595703125	684.5282592773438	-481.75830078125	122.3396987915039	159.1539611816406	-485.751708984375	279.4088439941406	365.17724609375	-497.3489074707031	320.1537475585938	48.06548309326172	-447.4801635742188	256.5014343261719	82.94219970703125	-407.3171691894531	223.8003082275391	95.63235473632812	-517.911865234375	67.63560485839844	192.3532867431641	-419.4929809570312	462.7660217285156	544.1157836914062	-166.2690582275391	435.9387817382812	821.2391967773438	-130.4082336425781	405.6097412109375	30.53741264343262	-201.4169311523438	453.9791870117188	406.9669189453125	-160.5398712158203	640.65673828125	38.75968170166016	-249.2869873046875	577.9951171875	26.9235725402832	-293.2677307128906	539.3853759765625	39.29665756225586	-177.8328094482422	348.794921875	34.18706512451172	-251.5780029296875	
212	2.11	257.1776733398438	1120.702026367188	-243.0906372070312	263.6250305175781	1122.588623046875	-378.7472839355469	253.5439147949219	1160.725463867188	-314.0054626464844	477.4501953125	1360.961059570312	-304.1947937011719	223.5281066894531	1314.787231445312	-318.6309204101562	266.8812255859375	1605.1025390625	-336.1051025390625	446.7595825195312	1498.154296875	-311.8450927734375	206.0394134521484	1423.200439453125	-249.5174102783203	266.6585998535156	1584.49365234375	-437.8959350585938	359.3448791503906	1568.777465820312	-497.5711364746094	348.2323913574219	1435.704345703125	-565.3978881835938	374.8670043945312	1216.639404296875	-579.0618286132812	300.7330017089844	1202.397216796875	-533.7183837890625	487.0362854003906	972.3484497070312	-508.0731506347656	413.0274963378906	936.5951538085938	-545.9276733398438	400.0072326660156	1102.009521484375	-575.1460571289062	511.2645568847656	780.6004638671875	-474.0603942871094	448.1653747558594	864.5953979492188	-538.0824584960938	511.3432922363281	884.3251953125	-511.8886413574219	308.4524841308594	1587.674560546875	-149.7633666992188	286.8270568847656	1515.45751953125	-86.10361480712891	274.1194763183594	1221.357666015625	-60.92096710205078	278.2132568359375	1218.258544921875	-157.516845703125	423.2146301269531	983.5756225585938	-51.16072463989258	346.6701354980469	964.1528930664062	-29.7415714263916	297.1054382324219	1149.00341796875	-41.60010147094727	459.0821533203125	790.6388549804688	-57.46437835693359	456.3886413574219	877.5155639648438	-37.33028411865234	387.2715759277344	866.8583984375	-17.05752182006836	299.9647521972656	1769.393310546875	-248.8877258300781	455.7682800292969	1850.158447265625	-382.072509765625	455.841064453125	1853.501708984375	-252.5495758056641	289.3678894042969	1769.554321289062	-384.0864868164062	366.5150146484375	1037.446655273438	-484.9586486816406	383.5	1030.816162109375	-118.9801483154297	464.2054138183594	1105.340942382812	-170.1393127441406	466.9466552734375	1104.76708984375	-435.4685974121094	489.8058776855469	534.5213623046875	-462.8693237304688	440.8673095703125	683.629150390625	-482.8372192382812	109.6489944458008	162.6719360351562	-487.0230407714844	269.8115844726562	366.9228820800781	-498.5144653320312	304.7855834960938	48.058349609375	-447.4993591308594	241.7873382568359	84.18064880371094	-407.7124633789062	209.5224456787109	96.38140869140625	-518.5084838867188	55.65521240234375	197.6642913818359	-421.051025390625	460.2111511230469	544.3016967773438	-166.6707611083984	432.3666076660156	821.28857421875	-130.8777465820312	405.6319580078125	30.32585144042969	-201.2351226806641	452.2677612304688	407.2221374511719	-160.7384948730469	640.6649780273438	38.75278472900391	-249.4317779541016	577.9596557617188	26.91814422607422	-293.3026428222656	539.440673828125	39.28413009643555	-177.8076782226562	348.7209167480469	34.1364631652832	-251.2922058105469	
213	2.12	252.4878540039062	1120.335571289062	-243.7853393554688	258.7793273925781	1122.033325195312	-379.4517822265625	248.8246002197266	1160.213745117188	-314.8091125488281	472.3512268066406	1360.611572265625	-305.3961181640625	218.5764465332031	1314.248779296875	-319.782470703125	261.5636291503906	1604.5146484375	-337.6734313964844	441.4774475097656	1497.751708984375	-313.084716796875	200.8511199951172	1422.56201171875	-251.0613708496094	261.5367736816406	1583.886596679688	-439.4555358886719	354.4239196777344	1568.33544921875	-498.9692077636719	343.7096252441406	1435.164672851562	-566.7573852539062	371.1235656738281	1216.12548828125	-580.1240234375	296.8818664550781	1201.736206054688	-535.0469360351562	483.2344055175781	971.8290405273438	-508.805419921875	409.30322265625	936.0856323242188	-546.9147338867188	396.4435119628906	1101.564331054688	-576.1426391601562	507.1192016601562	780.0470581054688	-474.5744934082031	444.3902893066406	864.0638427734375	-538.9368286132812	507.474365234375	883.7462158203125	-512.40673828125	302.8581848144531	1587.186401367188	-151.2601165771484	281.1982727050781	1514.946044921875	-87.62286376953125	268.6298828125	1220.874267578125	-62.45476150512695	273.0062866210938	1217.779052734375	-159.0650024414062	417.2781677246094	982.8507080078125	-52.25631713867188	340.6209716796875	963.5904541015625	-31.05233383178711	291.4491882324219	1148.5302734375	-43.07958221435547	452.7308654785156	789.8368530273438	-58.4792594909668	450.1768493652344	876.71435546875	-38.33614730834961	380.99609375	866.2119750976562	-18.24624443054199	294.3644409179688	1768.819458007812	-250.2110595703125	450.5740966796875	1849.872192382812	-382.7434997558594	450.2504577636719	1852.90576171875	-253.2361297607422	284.1857604980469	1769.319946289062	-385.4805297851562	361.4812316894531	1036.748046875	-485.6024475097656	379.1199035644531	1030.694091796875	-119.7556457519531	459.6493225097656	1105.183471679688	-171.2272186279297	462.048095703125	1104.189697265625	-436.5499572753906	482.1625366210938	533.3397827148438	-464.2865295410156	434.14697265625	682.7352905273438	-484.0041198730469	97.30699157714844	165.5665130615234	-488.3815612792969	260.1859130859375	368.407958984375	-499.7874755859375	289.9484558105469	48.01312255859375	-447.2787780761719	227.5106506347656	85.30784606933594	-407.9406433105469	195.6015930175781	96.54167175292969	-518.9459838867188	44.04452133178711	202.3757171630859	-422.7460021972656	457.5548706054688	544.4923706054688	-167.1246643066406	428.6097717285156	821.3289184570312	-131.3966827392578	405.6519470214844	30.11174583435059	-201.0310821533203	450.4990234375	407.4946594238281	-160.9695281982422	640.66943359375	38.75357055664062	-249.5782165527344	577.9237060546875	26.91391181945801	-293.3414306640625	539.4964599609375	39.26904296875	-177.7824096679688	348.6424865722656	34.08392715454102	-250.9811096191406	
